<?xml version="1.0" encoding="UTF-8" standalone="no"?>
<!DOCTYPE svg PUBLIC "-//W3C//DTD SVG 1.1//EN"
 "http://www.w3.org/Graphics/SVG/1.1/DTD/svg11.dtd">
<!-- Generated by graphviz version 2.26.3 (20100126.1600)
 -->
<!-- Title: G Pages: 1 -->
<svg width="558pt" height="1904pt"
 viewBox="0.00 0.00 558.00 1904.00" xmlns="http://www.w3.org/2000/svg" xmlns:xlink="http://www.w3.org/1999/xlink">
<g id="graph1" class="graph" transform="scale(1 1) rotate(0) translate(4 1900)">
<title>G</title>
<polygon fill="white" stroke="white" points="-4,5 -4,-1900 555,-1900 555,5 -4,5"/>
<g id="graph2" class="cluster"><title>cluster_Global</title>
<polyline fill="none" stroke="gray" points="110,-206 530,-206 "/>
<path fill="none" stroke="gray" d="M530,-206C536,-206 542,-212 542,-218"/>
<polyline fill="none" stroke="gray" points="542,-218 542,-1876 "/>
<path fill="none" stroke="gray" d="M542,-1876C542,-1882 536,-1888 530,-1888"/>
<polyline fill="none" stroke="gray" points="530,-1888 110,-1888 "/>
<path fill="none" stroke="gray" d="M110,-1888C104,-1888 98,-1882 98,-1876"/>
<polyline fill="none" stroke="gray" points="98,-1876 98,-218 "/>
<path fill="none" stroke="gray" d="M98,-218C98,-212 104,-206 110,-206"/>
<text text-anchor="middle" x="320" y="-1874.1" font-family="Times Roman,serif" font-size="11.00" fill="gray">Global</text>
</g>
<g id="graph3" class="cluster"><title>cluster_\Workflow</title>
<polyline fill="none" stroke="gray" points="118,-214 522,-214 "/>
<path fill="none" stroke="gray" d="M522,-214C528,-214 534,-220 534,-226"/>
<polyline fill="none" stroke="gray" points="534,-226 534,-1846 "/>
<path fill="none" stroke="gray" d="M534,-1846C534,-1852 528,-1858 522,-1858"/>
<polyline fill="none" stroke="gray" points="522,-1858 118,-1858 "/>
<path fill="none" stroke="gray" d="M118,-1858C112,-1858 106,-1852 106,-1846"/>
<polyline fill="none" stroke="gray" points="106,-1846 106,-226 "/>
<path fill="none" stroke="gray" d="M106,-226C106,-220 112,-214 118,-214"/>
<text text-anchor="middle" x="320" y="-1844.1" font-family="Times Roman,serif" font-size="11.00" fill="gray">Workflow</text>
</g>
<g id="graph4" class="cluster"><title>cluster_\Workflow\Preset</title>
<polyline fill="none" stroke="gray" points="407,-1322 513,-1322 "/>
<path fill="none" stroke="gray" d="M513,-1322C519,-1322 525,-1328 525,-1334"/>
<polyline fill="none" stroke="gray" points="525,-1334 525,-1816 "/>
<path fill="none" stroke="gray" d="M525,-1816C525,-1822 519,-1828 513,-1828"/>
<polyline fill="none" stroke="gray" points="513,-1828 407,-1828 "/>
<path fill="none" stroke="gray" d="M407,-1828C401,-1828 395,-1822 395,-1816"/>
<polyline fill="none" stroke="gray" points="395,-1816 395,-1334 "/>
<path fill="none" stroke="gray" d="M395,-1334C395,-1328 401,-1322 407,-1322"/>
<text text-anchor="middle" x="460" y="-1814.1" font-family="Times Roman,serif" font-size="11.00" fill="gray">Preset</text>
</g>
<g id="graph5" class="cluster"><title>cluster_\Workflow\Filehandler</title>
<polyline fill="none" stroke="gray" points="126,-1240 483,-1240 "/>
<path fill="none" stroke="gray" d="M483,-1240C489,-1240 495,-1246 495,-1252"/>
<polyline fill="none" stroke="gray" points="495,-1252 495,-1302 "/>
<path fill="none" stroke="gray" d="M495,-1302C495,-1308 489,-1314 483,-1314"/>
<polyline fill="none" stroke="gray" points="483,-1314 126,-1314 "/>
<path fill="none" stroke="gray" d="M126,-1314C120,-1314 114,-1308 114,-1302"/>
<polyline fill="none" stroke="gray" points="114,-1302 114,-1252 "/>
<path fill="none" stroke="gray" d="M114,-1252C114,-1246 120,-1240 126,-1240"/>
<text text-anchor="middle" x="304.5" y="-1300.1" font-family="Times Roman,serif" font-size="11.00" fill="gray">Filehandler</text>
</g>
<!-- \\Workflow\\Preset\\ProductChooser -->
<g id="node4" class="node"><title>\\Workflow\\Preset\\ProductChooser</title>
<polygon fill="none" stroke="black" points="512,-1690 408,-1690 408,-1654 512,-1654 512,-1690"/>
<text text-anchor="middle" x="460" y="-1669.1" font-family="Times Roman,serif" font-size="11.00">ProductChooser</text>
</g>
<!-- \\Workflow\\Preset -->
<g id="node20" class="node"><title>\\Workflow\\Preset</title>
<polygon fill="none" stroke="black" points="188,-1582 134,-1582 134,-1546 188,-1546 188,-1582"/>
<text text-anchor="middle" x="161" y="-1561.1" font-family="Times Roman,serif" font-size="11.00">Preset</text>
</g>
<!-- \\Workflow\\Preset\\ProductChooser&#45;&gt;\\Workflow\\Preset -->
<g id="edge6" class="edge"><title>\\Workflow\\Preset\\ProductChooser&#45;&gt;\\Workflow\\Preset</title>
<path fill="none" stroke="black" d="M409.954,-1653.92C350.137,-1632.32 251.444,-1596.67 198.057,-1577.39"/>
<polygon fill="none" stroke="black" points="198.916,-1573.97 188.322,-1573.87 196.538,-1580.56 198.916,-1573.97"/>
</g>
<!-- \\Workflow\\Preset\\FileActions -->
<g id="node5" class="node"><title>\\Workflow\\Preset\\FileActions</title>
<polygon fill="none" stroke="black" points="497,-1636 423,-1636 423,-1600 497,-1600 497,-1636"/>
<text text-anchor="middle" x="460" y="-1615.1" font-family="Times Roman,serif" font-size="11.00">FileActions</text>
</g>
<!-- \\Workflow\\Preset\\FileActions&#45;&gt;\\Workflow\\Preset -->
<g id="edge14" class="edge"><title>\\Workflow\\Preset\\FileActions&#45;&gt;\\Workflow\\Preset</title>
<path fill="none" stroke="black" d="M422.736,-1611.27C365.26,-1600.89 255.626,-1581.09 198.193,-1570.72"/>
<polygon fill="none" stroke="black" points="198.564,-1567.23 188.101,-1568.89 197.32,-1574.12 198.564,-1567.23"/>
</g>
<!-- \\Workflow\\Preset\\FieldSetter -->
<g id="node6" class="node"><title>\\Workflow\\Preset\\FieldSetter</title>
<polygon fill="none" stroke="black" points="497,-1582 423,-1582 423,-1546 497,-1546 497,-1582"/>
<text text-anchor="middle" x="460" y="-1561.1" font-family="Times Roman,serif" font-size="11.00">FieldSetter</text>
</g>
<!-- \\Workflow\\Preset\\FieldSetter&#45;&gt;\\Workflow\\Preset -->
<g id="edge18" class="edge"><title>\\Workflow\\Preset\\FieldSetter&#45;&gt;\\Workflow\\Preset</title>
<path fill="none" stroke="black" d="M422.434,-1564C364.848,-1564 255.418,-1564 198.108,-1564"/>
<polygon fill="none" stroke="black" points="198.038,-1560.5 188.038,-1564 198.038,-1567.5 198.038,-1560.5"/>
</g>
<!-- \\Workflow\\Preset\\RecordSources -->
<g id="node7" class="node"><title>\\Workflow\\Preset\\RecordSources</title>
<polygon fill="none" stroke="black" points="509,-1528 411,-1528 411,-1492 509,-1492 509,-1528"/>
<text text-anchor="middle" x="460" y="-1507.1" font-family="Times Roman,serif" font-size="11.00">RecordSources</text>
</g>
<!-- \\Workflow\\Preset\\RecordSources&#45;&gt;\\Workflow\\Preset -->
<g id="edge22" class="edge"><title>\\Workflow\\Preset\\RecordSources&#45;&gt;\\Workflow\\Preset</title>
<path fill="none" stroke="black" d="M410.961,-1518.86C351.318,-1529.63 251.971,-1547.57 198.24,-1557.27"/>
<polygon fill="none" stroke="black" points="197.347,-1553.88 188.128,-1559.1 198.591,-1560.77 197.347,-1553.88"/>
</g>
<!-- \\Workflow\\Preset\\SyntaxHighlighter -->
<g id="node8" class="node"><title>\\Workflow\\Preset\\SyntaxHighlighter</title>
<polygon fill="none" stroke="black" points="516,-1474 404,-1474 404,-1438 516,-1438 516,-1474"/>
<text text-anchor="middle" x="460" y="-1453.1" font-family="Times Roman,serif" font-size="11.00">SyntaxHighlighter</text>
</g>
<!-- \\Workflow\\Preset\\SyntaxHighlighter&#45;&gt;\\Workflow\\Preset -->
<g id="edge28" class="edge"><title>\\Workflow\\Preset\\SyntaxHighlighter&#45;&gt;\\Workflow\\Preset</title>
<path fill="none" stroke="black" d="M409.954,-1474.08C350.137,-1495.68 251.444,-1531.33 198.057,-1550.61"/>
<polygon fill="none" stroke="black" points="196.538,-1547.44 188.322,-1554.13 198.916,-1554.03 196.538,-1547.44"/>
</g>
<!-- \\Workflow\\Preset\\StaticFields -->
<g id="node9" class="node"><title>\\Workflow\\Preset\\StaticFields</title>
<polygon fill="none" stroke="black" points="499,-1420 421,-1420 421,-1384 499,-1384 499,-1420"/>
<text text-anchor="middle" x="460" y="-1399.1" font-family="Times Roman,serif" font-size="11.00">StaticFields</text>
</g>
<!-- \\Workflow\\Preset\\StaticFields&#45;&gt;\\Workflow\\Preset -->
<g id="edge32" class="edge"><title>\\Workflow\\Preset\\StaticFields&#45;&gt;\\Workflow\\Preset</title>
<path fill="none" stroke="black" d="M420.87,-1416.98C411.935,-1420.68 402.556,-1424.8 394,-1429 322.014,-1464.37 241.868,-1512.97 196.829,-1541.17"/>
<polygon fill="none" stroke="black" points="194.906,-1538.25 188.302,-1546.53 198.631,-1544.17 194.906,-1538.25"/>
</g>
<!-- \\Workflow\\Preset\\Condition -->
<g id="node10" class="node"><title>\\Workflow\\Preset\\Condition</title>
<polygon fill="none" stroke="black" points="493,-1798 427,-1798 427,-1762 493,-1762 493,-1798"/>
<text text-anchor="middle" x="460" y="-1777.1" font-family="Times Roman,serif" font-size="11.00">Condition</text>
</g>
<!-- \\Workflow\\Preset\\Condition&#45;&gt;\\Workflow\\Preset -->
<g id="edge38" class="edge"><title>\\Workflow\\Preset\\Condition&#45;&gt;\\Workflow\\Preset</title>
<path fill="none" stroke="black" d="M426.188,-1768.37C415.57,-1764.15 404.012,-1758.93 394,-1753 311.91,-1704.36 227.992,-1628.55 186.899,-1589.36"/>
<polygon fill="none" stroke="black" points="189.137,-1586.66 179.499,-1582.26 184.29,-1591.71 189.137,-1586.66"/>
</g>
<!-- \\Workflow\\Preset\\Attachments -->
<g id="node11" class="node"><title>\\Workflow\\Preset\\Attachments</title>
<polygon fill="none" stroke="black" points="504,-1744 416,-1744 416,-1708 504,-1708 504,-1744"/>
<text text-anchor="middle" x="460" y="-1723.1" font-family="Times Roman,serif" font-size="11.00">Attachments</text>
</g>
<!-- \\Workflow\\Preset\\Attachments&#45;&gt;\\Workflow\\Preset -->
<g id="edge40" class="edge"><title>\\Workflow\\Preset\\Attachments&#45;&gt;\\Workflow\\Preset</title>
<path fill="none" stroke="black" d="M415.96,-1708.97C408.552,-1705.82 401,-1702.44 394,-1699 322.014,-1663.63 241.868,-1615.03 196.829,-1586.83"/>
<polygon fill="none" stroke="black" points="198.631,-1583.83 188.302,-1581.47 194.906,-1589.75 198.631,-1583.83"/>
</g>
<!-- \\Workflow\\Preset\\FormGenerator -->
<g id="node12" class="node"><title>\\Workflow\\Preset\\FormGenerator</title>
<polygon fill="none" stroke="black" points="510,-1366 410,-1366 410,-1330 510,-1330 510,-1366"/>
<text text-anchor="middle" x="460" y="-1345.1" font-family="Times Roman,serif" font-size="11.00">FormGenerator</text>
</g>
<!-- \\Workflow\\Preset\\FormGenerator&#45;&gt;\\Workflow\\Preset -->
<g id="edge44" class="edge"><title>\\Workflow\\Preset\\FormGenerator&#45;&gt;\\Workflow\\Preset</title>
<path fill="none" stroke="black" d="M411.264,-1366.02C405.319,-1368.77 399.432,-1371.78 394,-1375 311.91,-1423.64 227.992,-1499.45 186.899,-1538.64"/>
<polygon fill="none" stroke="black" points="184.29,-1536.29 179.499,-1545.74 189.137,-1541.34 184.29,-1536.29"/>
</g>
<!-- \\Workflow\\UserQueueInterface -->
<g id="node61" class="node"><title>\\Workflow\\UserQueueInterface</title>
<ellipse fill="none" stroke="black" cx="161" cy="-180" rx="160.018" ry="18"/>
<text text-anchor="middle" x="161" y="-175.9" font-family="Times Roman,serif" font-size="14.00" fill="gray">\Workflow\UserQueueInterface</text>
</g>
<!-- \\Workflow\\Preset\\FormGenerator&#45;&gt;\\Workflow\\UserQueueInterface -->
<g id="edge46" class="edge"><title>\\Workflow\\Preset\\FormGenerator&#45;&gt;\\Workflow\\UserQueueInterface</title>
<path fill="none" stroke="black" stroke-dasharray="1,5" d="M409.428,-1332.3C403.418,-1328.5 398.006,-1323.8 394,-1318 253.758,-1114.99 485.758,-394.566 322,-210 316.811,-204.151 310.878,-199.213 304.423,-195.057"/>
<polygon fill="none" stroke="black" points="305.736,-191.777 295.316,-189.863 302.268,-197.857 305.736,-191.777"/>
</g>
<!-- \\Workflow\\Filehandler\\Base -->
<g id="node14" class="node"><title>\\Workflow\\Filehandler\\Base</title>
<polygon fill="none" stroke="black" points="199,-1284 123,-1284 123,-1248 199,-1248 199,-1284"/>
<text text-anchor="start" x="131" y="-1271.43" font-family="Times Roman,serif" font-size="11.00">«abstract»</text>
<text text-anchor="start" x="147" y="-1258.23" font-family="Times Roman,serif" font-size="11.00">Base</text>
</g>
<!-- \\Workflow\\Filehandler\\Csv -->
<g id="node15" class="node"><title>\\Workflow\\Filehandler\\Csv</title>
<polygon fill="none" stroke="black" points="487,-1284 433,-1284 433,-1248 487,-1248 487,-1284"/>
<text text-anchor="middle" x="460" y="-1263.1" font-family="Times Roman,serif" font-size="11.00">Csv</text>
</g>
<!-- \\Workflow\\Filehandler\\Csv&#45;&gt;\\Workflow\\Filehandler\\Base -->
<g id="edge26" class="edge"><title>\\Workflow\\Filehandler\\Csv&#45;&gt;\\Workflow\\Filehandler\\Base</title>
<path fill="none" stroke="black" d="M432.938,-1266C382.555,-1266 273.719,-1266 210.068,-1266"/>
<polygon fill="none" stroke="black" points="209.876,-1262.5 199.876,-1266 209.876,-1269.5 209.876,-1262.5"/>
</g>
<!-- \\Workflow\\Fieldtype -->
<g id="node16" class="node"><title>\\Workflow\\Fieldtype</title>
<polygon fill="none" stroke="black" points="498,-366 422,-366 422,-330 498,-330 498,-366"/>
<text text-anchor="start" x="430" y="-353.433" font-family="Times Roman,serif" font-size="11.00">«abstract»</text>
<text text-anchor="start" x="435.5" y="-340.233" font-family="Times Roman,serif" font-size="11.00">Fieldtype</text>
</g>
<!-- \\Workflow\\Extendable -->
<g id="node39" class="node"><title>\\Workflow\\Extendable</title>
<ellipse fill="none" stroke="black" cx="161" cy="-126" rx="118.13" ry="18"/>
<text text-anchor="middle" x="161" y="-121.9" font-family="Times Roman,serif" font-size="14.00" fill="gray">\Workflow\Extendable</text>
</g>
<!-- \\Workflow\\Fieldtype&#45;&gt;\\Workflow\\Extendable -->
<g id="edge8" class="edge"><title>\\Workflow\\Fieldtype&#45;&gt;\\Workflow\\Extendable</title>
<path fill="none" stroke="black" d="M421.383,-337.971C411.53,-333.963 401.591,-328.466 394,-321 336.084,-264.036 385.873,-203.193 322,-153 311.061,-144.404 298.398,-138.112 285.075,-133.557"/>
<polygon fill="none" stroke="black" points="285.858,-130.136 275.271,-130.538 283.798,-136.826 285.858,-130.136"/>
</g>
<!-- \\Workflow\\ConnectionProvider -->
<g id="node17" class="node"><title>\\Workflow\\ConnectionProvider</title>
<polygon fill="none" stroke="black" points="521,-1176 399,-1176 399,-1140 521,-1140 521,-1176"/>
<text text-anchor="start" x="430" y="-1163.43" font-family="Times Roman,serif" font-size="11.00">«abstract»</text>
<text text-anchor="start" x="407" y="-1150.23" font-family="Times Roman,serif" font-size="11.00">ConnectionProvider</text>
</g>
<!-- \\Workflow\\ConnectionProvider&#45;&gt;\\Workflow\\Extendable -->
<g id="edge10" class="edge"><title>\\Workflow\\ConnectionProvider&#45;&gt;\\Workflow\\Extendable</title>
<path fill="none" stroke="black" d="M402.762,-1139.99C399.453,-1137.38 396.473,-1134.41 394,-1131 265.968,-954.655 468.791,-314.066 322,-153 312.796,-142.901 301.349,-135.648 288.83,-130.528"/>
<polygon fill="none" stroke="black" points="289.661,-127.107 279.066,-127.016 287.292,-133.694 289.661,-127.107"/>
</g>
<!-- \\Workflow\\Task -->
<g id="node18" class="node"><title>\\Workflow\\Task</title>
<polygon fill="none" stroke="black" points="498,-1122 422,-1122 422,-1086 498,-1086 498,-1122"/>
<text text-anchor="start" x="430" y="-1109.43" font-family="Times Roman,serif" font-size="11.00">«abstract»</text>
<text text-anchor="start" x="447.5" y="-1096.23" font-family="Times Roman,serif" font-size="11.00">Task</text>
</g>
<!-- \\Workflow\\Queue -->
<g id="node19" class="node"><title>\\Workflow\\Queue</title>
<polygon fill="none" stroke="black" points="487,-1068 433,-1068 433,-1032 487,-1032 487,-1068"/>
<text text-anchor="middle" x="460" y="-1047.1" font-family="Times Roman,serif" font-size="11.00">Queue</text>
</g>
<!-- \\Workflow\\ConditionMysql -->
<g id="node21" class="node"><title>\\Workflow\\ConditionMysql</title>
<polygon fill="none" stroke="black" points="509,-1014 411,-1014 411,-978 509,-978 509,-1014"/>
<text text-anchor="middle" x="460" y="-993.1" font-family="Times Roman,serif" font-size="11.00">ConditionMysql</text>
</g>
<!-- \\Workflow\\RecordSource -->
<g id="node22" class="node"><title>\\Workflow\\RecordSource</title>
<polygon fill="none" stroke="black" points="506,-960 414,-960 414,-924 506,-924 506,-960"/>
<text text-anchor="start" x="430" y="-947.433" font-family="Times Roman,serif" font-size="11.00">«abstract»</text>
<text text-anchor="start" x="422" y="-934.233" font-family="Times Roman,serif" font-size="11.00">RecordSource</text>
</g>
<!-- \\Workflow\\RecordSource&#45;&gt;\\Workflow\\Extendable -->
<g id="edge12" class="edge"><title>\\Workflow\\RecordSource&#45;&gt;\\Workflow\\Extendable</title>
<path fill="none" stroke="black" d="M413.278,-930.473C405.819,-926.685 398.942,-921.661 394,-915 292.651,-778.405 437.867,-277.518 322,-153 312.692,-142.997 301.18,-135.804 288.624,-130.717"/>
<polygon fill="none" stroke="black" points="289.432,-127.29 278.838,-127.227 287.081,-133.883 289.432,-127.29"/>
</g>
<!-- \\Workflow\\VtUtils -->
<g id="node23" class="node"><title>\\Workflow\\VtUtils</title>
<polygon fill="none" stroke="black" points="487,-906 433,-906 433,-870 487,-870 487,-906"/>
<text text-anchor="middle" x="460" y="-885.1" font-family="Times Roman,serif" font-size="11.00">VtUtils</text>
</g>
<!-- \\Workflow\\Attachment -->
<g id="node24" class="node"><title>\\Workflow\\Attachment</title>
<polygon fill="none" stroke="black" points="501,-852 419,-852 419,-816 501,-816 501,-852"/>
<text text-anchor="start" x="430" y="-839.433" font-family="Times Roman,serif" font-size="11.00">«abstract»</text>
<text text-anchor="start" x="427" y="-826.233" font-family="Times Roman,serif" font-size="11.00">Attachment</text>
</g>
<!-- \\Workflow\\Attachment&#45;&gt;\\Workflow\\Extendable -->
<g id="edge16" class="edge"><title>\\Workflow\\Attachment&#45;&gt;\\Workflow\\Extendable</title>
<path fill="none" stroke="black" d="M418.447,-824.77C409.08,-820.789 400.112,-815.106 394,-807 217.947,-573.512 522.85,-365.533 322,-153 312.523,-142.972 300.828,-135.781 288.101,-130.712"/>
<polygon fill="none" stroke="black" points="289.264,-127.411 278.669,-127.385 286.935,-134.012 289.264,-127.411"/>
</g>
<!-- \\Workflow\\ConditionCheck -->
<g id="node25" class="node"><title>\\Workflow\\ConditionCheck</title>
<polygon fill="none" stroke="black" points="510,-798 410,-798 410,-762 510,-762 510,-798"/>
<text text-anchor="middle" x="460" y="-777.1" font-family="Times Roman,serif" font-size="11.00">ConditionCheck</text>
</g>
<!-- \\Workflow\\VTEntity -->
<g id="node26" class="node"><title>\\Workflow\\VTEntity</title>
<polygon fill="none" stroke="black" points="192,-1230 130,-1230 130,-1194 192,-1194 192,-1230"/>
<text text-anchor="middle" x="161" y="-1209.1" font-family="Times Roman,serif" font-size="11.00">VTEntity</text>
</g>
<!-- \\Workflow\\VTTemplate -->
<g id="node27" class="node"><title>\\Workflow\\VTTemplate</title>
<polygon fill="none" stroke="black" points="500,-744 420,-744 420,-708 500,-708 500,-744"/>
<text text-anchor="middle" x="460" y="-723.1" font-family="Times Roman,serif" font-size="11.00">VTTemplate</text>
</g>
<!-- \\Workflow\\InterfaceFiles -->
<g id="node28" class="node"><title>\\Workflow\\InterfaceFiles</title>
<polygon fill="none" stroke="black" points="504,-690 416,-690 416,-654 504,-654 504,-690"/>
<text text-anchor="start" x="430" y="-677.433" font-family="Times Roman,serif" font-size="11.00">«abstract»</text>
<text text-anchor="start" x="424" y="-664.233" font-family="Times Roman,serif" font-size="11.00">InterfaceFiles</text>
</g>
<!-- \\Workflow\\InterfaceFiles&#45;&gt;\\Workflow\\Extendable -->
<g id="edge20" class="edge"><title>\\Workflow\\InterfaceFiles&#45;&gt;\\Workflow\\Extendable</title>
<path fill="none" stroke="black" d="M415.238,-661.086C407.116,-657.228 399.492,-652.02 394,-645 257.825,-470.944 476.63,-310.888 322,-153 312.518,-143.319 300.963,-136.312 288.438,-131.318"/>
<polygon fill="none" stroke="black" points="289.285,-127.906 278.69,-127.881 286.957,-134.507 289.285,-127.906"/>
</g>
<!-- \\Workflow\\ExpressionParser -->
<g id="node29" class="node"><title>\\Workflow\\ExpressionParser</title>
<polygon fill="none" stroke="black" points="515,-636 405,-636 405,-600 515,-600 515,-636"/>
<text text-anchor="middle" x="460" y="-615.1" font-family="Times Roman,serif" font-size="11.00">ExpressionParser</text>
</g>
<!-- \\Workflow\\ExpressionException -->
<g id="node30" class="node"><title>\\Workflow\\ExpressionException</title>
<polygon fill="none" stroke="black" points="525,-312 395,-312 395,-276 525,-276 525,-312"/>
<text text-anchor="middle" x="460" y="-291.1" font-family="Times Roman,serif" font-size="11.00">ExpressionException</text>
</g>
<!-- \\Exception -->
<g id="node48" class="node"><title>\\Exception</title>
<ellipse fill="none" stroke="black" cx="161" cy="-72" rx="61.8445" ry="18"/>
<text text-anchor="middle" x="161" y="-67.9" font-family="Times Roman,serif" font-size="14.00" fill="gray">\Exception</text>
</g>
<!-- \\Workflow\\ExpressionException&#45;&gt;\\Exception -->
<g id="edge24" class="edge"><title>\\Workflow\\ExpressionException&#45;&gt;\\Exception</title>
<path fill="none" stroke="black" d="M405.549,-275.987C401.367,-273.366 397.442,-270.386 394,-267 336.084,-210.036 385.873,-149.193 322,-99 296.873,-79.2551 262.648,-71.6655 232.213,-69.3541"/>
<polygon fill="none" stroke="black" points="232.242,-65.85 222.055,-68.7626 231.835,-72.8381 232.242,-65.85"/>
</g>
<!-- \\Workflow\\VTEntityMap -->
<g id="node31" class="node"><title>\\Workflow\\VTEntityMap</title>
<polygon fill="none" stroke="black" points="502,-258 418,-258 418,-222 502,-222 502,-258"/>
<text text-anchor="middle" x="460" y="-237.1" font-family="Times Roman,serif" font-size="11.00">VTEntityMap</text>
</g>
<!-- \\ArrayIterator -->
<g id="node52" class="node"><title>\\ArrayIterator</title>
<ellipse fill="none" stroke="black" cx="161" cy="-18" rx="78.0216" ry="18"/>
<text text-anchor="middle" x="161" y="-13.9" font-family="Times Roman,serif" font-size="14.00" fill="gray">\ArrayIterator</text>
</g>
<!-- \\Workflow\\VTEntityMap&#45;&gt;\\ArrayIterator -->
<g id="edge30" class="edge"><title>\\Workflow\\VTEntityMap&#45;&gt;\\ArrayIterator</title>
<path fill="none" stroke="black" d="M452.919,-221.829C436.517,-182.371 391.903,-88.8785 322,-45 300.586,-31.5582 274.545,-24.206 249.703,-20.3314"/>
<polygon fill="none" stroke="black" points="249.904,-16.8259 239.519,-18.9211 248.944,-23.7598 249.904,-16.8259"/>
</g>
<!-- \\Workflow\\EntityDelta -->
<g id="node32" class="node"><title>\\Workflow\\EntityDelta</title>
<polygon fill="none" stroke="black" points="498,-474 422,-474 422,-438 498,-438 498,-474"/>
<text text-anchor="middle" x="460" y="-453.1" font-family="Times Roman,serif" font-size="11.00">EntityDelta</text>
</g>
<!-- \\Workflow\\Execute -->
<g id="node33" class="node"><title>\\Workflow\\Execute</title>
<polygon fill="none" stroke="black" points="491,-420 429,-420 429,-384 491,-384 491,-420"/>
<text text-anchor="middle" x="460" y="-399.1" font-family="Times Roman,serif" font-size="11.00">Execute</text>
</g>
<!-- \\Workflow\\ConditionPlugin -->
<g id="node34" class="node"><title>\\Workflow\\ConditionPlugin</title>
<polygon fill="none" stroke="black" points="509,-528 411,-528 411,-492 509,-492 509,-528"/>
<text text-anchor="start" x="430" y="-515.433" font-family="Times Roman,serif" font-size="11.00">«abstract»</text>
<text text-anchor="start" x="419" y="-502.233" font-family="Times Roman,serif" font-size="11.00">ConditionPlugin</text>
</g>
<!-- \\Workflow\\ConditionPlugin&#45;&gt;\\Workflow\\Extendable -->
<g id="edge34" class="edge"><title>\\Workflow\\ConditionPlugin&#45;&gt;\\Workflow\\Extendable</title>
<path fill="none" stroke="black" d="M410.258,-496.031C404.126,-492.587 398.459,-488.309 394,-483 297.447,-368.053 430.7,-256.535 322,-153 312.188,-143.654 300.425,-136.857 287.782,-131.984"/>
<polygon fill="none" stroke="black" points="288.555,-128.549 277.96,-128.621 286.287,-135.171 288.555,-128.549"/>
</g>
<!-- \\Workflow\\FileAction -->
<g id="node35" class="node"><title>\\Workflow\\FileAction</title>
<polygon fill="none" stroke="black" points="498,-582 422,-582 422,-546 498,-546 498,-582"/>
<text text-anchor="start" x="430" y="-569.433" font-family="Times Roman,serif" font-size="11.00">«abstract»</text>
<text text-anchor="start" x="434" y="-556.233" font-family="Times Roman,serif" font-size="11.00">FileAction</text>
</g>
<!-- \\Workflow\\FileAction&#45;&gt;\\Workflow\\Extendable -->
<g id="edge36" class="edge"><title>\\Workflow\\FileAction&#45;&gt;\\Workflow\\Extendable</title>
<path fill="none" stroke="black" d="M421.272,-555.424C411.06,-551.406 400.962,-545.54 394,-537 284.288,-402.41 445.955,-274.599 322,-153 312.327,-143.51 300.65,-136.624 288.057,-131.699"/>
<polygon fill="none" stroke="black" points="288.861,-128.273 278.266,-128.304 286.568,-134.887 288.861,-128.273"/>
</g>
<!-- \\Workflow\\VTInventoryEntity -->
<g id="node36" class="node"><title>\\Workflow\\VTInventoryEntity</title>
<polygon fill="none" stroke="black" points="516,-1230 404,-1230 404,-1194 516,-1194 516,-1230"/>
<text text-anchor="middle" x="460" y="-1209.1" font-family="Times Roman,serif" font-size="11.00">VTInventoryEntity</text>
</g>
<!-- \\Workflow\\VTInventoryEntity&#45;&gt;\\Workflow\\VTEntity -->
<g id="edge42" class="edge"><title>\\Workflow\\VTInventoryEntity&#45;&gt;\\Workflow\\VTEntity</title>
<path fill="none" stroke="black" d="M403.76,-1212C345.203,-1212 254.863,-1212 202.481,-1212"/>
<polygon fill="none" stroke="black" points="202.218,-1208.5 192.218,-1212 202.218,-1215.5 202.218,-1208.5"/>
</g>
</g>
</svg>
